<?xml version="1.0" encoding="utf-8" ?><svg xmlns="http://www.w3.org/2000/svg" xmlns:xlink="http://www.w3.org/1999/xlink" width="1254" height="1254" viewBox="0 0 1254 1254"><path fill="#070706" d="M576.316 498.11C596.347 496.156 618.976 499.607 636.789 508.951C654.072 518.017 664.732 528.543 685.643 528.862C721.726 529.411 794.633 493.924 816.319 498.512C821.641 499.638 826.103 503.022 828.923 507.644C839.04 524.225 833.479 565.405 828.669 583.439C812.361 644.585 774.795 662.139 725.245 691.028C697.693 707.091 676.166 726.237 663.608 756.202C639.808 812.988 664.131 873.9 648.563 931.741C647.449 935.878 646.162 941.401 641.844 943.382C639.408 944.5 635.488 944.269 632.851 944.308C609.445 944.654 585.992 944.307 562.582 944.31L419.416 944.31C393.877 944.302 367.976 944.891 342.55 943.845C339.086 942.824 335.961 937.649 338.295 934.22C363.06 897.853 386.453 863.621 401.396 821.559C404.291 813.414 406.998 805.205 409.516 796.936C412.861 798.282 417.601 801.174 420.966 802.916C429.902 807.688 438.701 811.786 448.609 813.989C490.215 823.241 525.778 798.722 533.993 756.904C544.783 701.979 508.543 653.932 487.494 606.358C485.255 601.299 483.067 596.237 481.312 590.995C479.484 585.906 477.017 573.839 474.621 570.18C468.284 567.302 466.04 573.846 465.1 578.945C460.558 603.601 476.997 630.192 487.129 651.754C499.715 678.538 512.454 700.226 515.02 730.564C517.555 760.537 502.557 792.64 469.528 795.6C439.276 797.083 400.34 768.32 377.155 750.234C365.575 741.201 354.785 724.024 354.545 709.113C353.816 693.63 359.041 678.401 365.978 664.775C412.233 573.925 466.626 503.408 576.316 498.11ZM618.759 589.381C629.187 588.288 636.805 579.027 635.868 568.584C634.931 558.141 625.785 550.384 615.33 551.165C608.425 551.68 602.334 555.875 599.391 562.142C596.447 568.408 597.108 575.775 601.12 581.417C605.132 587.06 611.873 590.103 618.759 589.381Z"/><path fill="#070706" d="M1035.34 285.38C1043.81 284.984 1047.59 288.727 1044.35 297.271C1041.63 304.472 1037.95 311.644 1034.74 318.683L1016.68 358.455C1003.59 387.675 990.268 416.789 976.705 445.791C969.946 460.343 963.436 475.108 956.31 489.479C955.098 491.924 953.428 494.735 950.498 495.352C940.787 497.396 912.447 466.691 901.402 460.806C899.86 459.984 898.695 459.477 896.959 460.029C889.193 462.498 878.134 485.623 868.149 488.587C865.032 488.131 863.335 485.275 863.559 482.689C864.07 476.784 861.901 446.238 865.021 443.251C895.944 413.645 928.843 386.108 959.853 356.57L977.17 340.202C950.588 357.47 924.156 374.966 897.875 392.689C884.172 401.974 870.804 411.84 856.772 420.593C853.736 422.706 849.853 422.911 846.359 421.554C826.39 413.8 805.995 406.975 786.119 399.002C783.799 398.072 781.883 396.4 780.472 394.373C779.615 390.544 780.79 386.904 784.543 385.153C792.707 381.344 801.27 378.121 809.669 374.825L853.738 357.379L990.123 303.263C1005.13 297.251 1020.5 291.629 1035.34 285.38Z"/></svg>